<svg id="Capa_1" enable-background="new 0 0 512 512" height="512" viewBox="0 0 512 512" width="512" xmlns="http://www.w3.org/2000/svg"><g><path d="m444.5 7.5v497h30c16.569 0 30-13.431 30-30v-437c0-16.569-13.431-30-30-30z" fill="#a44129"/><path d="m384.5 7.5v497h60c16.569 0 30-13.431 30-30l-30-218.5 30-218.5c0-16.569-13.431-30-30-30z" fill="#b6502f"/><path d="m444.5 37.5-30 218.5 30 218.5h30v-437z" fill="#ffe8c2"/><path d="m394.5 37.5h50v437h-50z" fill="#fff"/><path d="m52.5 7.5c-16.5 0-30 13.5-30 30v437c0 16.5 13.5 30 30 30h30l60-248.5-60-248.5z" fill="#a44129"/><g fill="#ffba48"><path d="m22.5 67.5c-8.284 0-15 6.716-15 15s6.716 15 15 15h120v-30z"/><path d="m22.5 241c-8.284 0-15 6.716-15 15s6.716 15 15 15h120v-30z"/><path d="m22.5 414.5c-8.284 0-15 6.716-15 15s6.716 15 15 15h120v-30z"/></g><path d="m384.5 7.5h-302v497h302c16.569 0 30-13.431 30-30v-437c0-16.569-13.431-30-30-30z" fill="#c87044"/><path d="m339.5 52.5h-182c0 16.569-13.431 30-30 30v347c16.569 0 30 13.431 30 30h182c0-16.569 13.431-30 30-30v-347c-16.569 0-30-13.431-30-30z" fill="#edb170"/><path d="m474.5 0h-422c-20.678 0-37.5 16.822-37.5 37.5v23.79c-8.729 3.096-15 11.433-15 21.21 0 9.778 6.27 18.12 15 21.215v131.075c-8.729 3.096-15 11.433-15 21.21s6.271 18.114 15 21.21v131.075c-8.73 3.095-15 11.437-15 21.215 0 9.777 6.271 18.114 15 21.21v23.79c0 20.678 16.822 37.5 37.5 37.5h422c20.678 0 37.5-16.822 37.5-37.5v-437c0-20.678-16.822-37.5-37.5-37.5zm-422 15h22.5v45h-45v-22.5c0-12.407 10.094-22.5 22.5-22.5zm-30 60h52.5v15h-22.5c-4.143 0-7.5 3.358-7.5 7.5s3.357 7.5 7.5 7.5h22.5v128.5h-45v-136c0-4.142-3.357-7.5-7.5-7.5-4.136 0-7.5-3.364-7.5-7.5s3.364-7.5 7.5-7.5zm0 173.5h52.5v15h-52.5c-4.136 0-7.5-3.364-7.5-7.5s3.364-7.5 7.5-7.5zm0 173.5c4.143 0 7.5-3.358 7.5-7.5v-136h45v128.5h-22.5c-4.143 0-7.5 3.358-7.5 7.5s3.357 7.5 7.5 7.5h22.5v15h-52.5c-4.136 0-7.5-3.364-7.5-7.5s3.364-7.5 7.5-7.5zm7.5 52.5v-22.5h45v45h-22.5c-12.406 0-22.5-10.093-22.5-22.5zm60 22.5v-482h294.5c12.406 0 22.5 10.093 22.5 22.5v437c0 12.407-10.094 22.5-22.5 22.5zm407-22.5c0 12.407-10.094 22.5-22.5 22.5h-60.02c3.282-4.363 5.637-9.461 6.766-15h53.254c4.143 0 7.5-3.358 7.5-7.5v-437c0-4.142-3.357-7.5-7.5-7.5h-53.255c-1.129-5.539-3.483-10.637-6.766-15h60.02c12.406 0 22.5 10.093 22.5 22.5v437zm-75-429.5h15v422h-15zm45 0v422h-15v-422z"/><path d="m330.995 208.372c-1.34-2.32-3.815-3.75-6.495-3.75h-46.336l-23.168-40.129c-1.34-2.32-3.815-3.75-6.495-3.75s-5.155 1.43-6.495 3.75l-23.168 40.129h-46.338c-2.68 0-5.155 1.43-6.495 3.75s-1.34 5.18 0 7.5l23.168 40.128-23.168 40.128c-1.34 2.32-1.34 5.18 0 7.5s3.815 3.75 6.495 3.75h46.336l23.168 40.129c1.34 2.32 3.815 3.75 6.495 3.75s5.155-1.43 6.495-3.75l23.168-40.129h46.338c2.68 0 5.155-1.43 6.495-3.75s1.34-5.18 0-7.5l-23.168-40.128 23.168-40.128c1.34-2.321 1.34-5.18 0-7.5zm-82.495-25.129 12.343 21.379h-24.686zm21.003 36.379 21.004 36.378-21.003 36.378h-42.007l-21.004-36.378 21.003-36.378zm-84.013 0h24.686l-12.343 21.378zm0 72.756 12.343-21.378 12.343 21.379h-24.686zm63.01 36.379-12.343-21.379h24.686zm63.01-36.379h-24.686l12.343-21.378zm-12.343-51.378-12.343-21.379h24.686z"/><path d="m369.5 75c-12.406 0-22.5-10.093-22.5-22.5 0-4.142-3.357-7.5-7.5-7.5h-182c-4.143 0-7.5 3.358-7.5 7.5 0 12.407-10.094 22.5-22.5 22.5-4.143 0-7.5 3.358-7.5 7.5v347c0 4.142 3.357 7.5 7.5 7.5 12.406 0 22.5 10.093 22.5 22.5 0 4.142 3.357 7.5 7.5 7.5h182c4.143 0 7.5-3.358 7.5-7.5 0-12.407 10.094-22.5 22.5-22.5 4.143 0 7.5-3.358 7.5-7.5v-347c0-4.142-3.357-7.5-7.5-7.5zm-7.5 347.753c-14.671 2.99-26.256 14.576-29.247 29.247h-168.506c-2.991-14.671-14.576-26.256-29.247-29.247v-333.506c14.671-2.99 26.256-14.576 29.247-29.247h168.506c2.991 14.671 14.576 26.256 29.247 29.247z"/></g></svg>